<svg
  width="32"
  height="32"
  viewBox="0 0 32 32"
  fill="none"
  xmlns="http://www.w3.org/2000/svg"
>
  <g transform="translate(0.58 0.43) scale(0.954467 0.915099)">
    <path
      d="M14.9068 29.2811C23.1396 29.2811 29.8136 22.7263 29.8136 14.6405C29.8136 6.55479 23.1396 0 14.9068 0C6.67401 0 0 6.55479 0 14.6405C0 22.7263 6.67401 29.2811 14.9068 29.2811Z"
      fill="#111827"
    />
  </g>
  <g transform="translate(6.26 8.36) scale(0.954492 0.915025)">
    <path
      d="M7.42549 4.70324C7.58182 4.70324 7.7147 4.75698 7.82412 4.86445C7.93355 4.97193 7.98827 5.10243 7.98827 5.25596V6.39211C7.98827 6.53541 7.93355 6.66079 7.82412 6.76827C7.7147 6.87574 7.58182 6.92948 7.42549 6.92948H2.28237V10.8599C2.28237 11.0032 2.23026 11.1286 2.12604 11.2361C2.02182 11.3436 1.89155 11.3973 1.73523 11.3973H0.547149C0.401244 11.3973 0.273578 11.3436 0.16415 11.2361C0.0547216 11.1286 7.62939e-06 11.0032 7.62939e-06 10.8599V5.25596C7.62939e-06 5.10243 0.0547216 4.97193 0.16415 4.86445C0.273578 4.75698 0.401244 4.70324 0.547149 4.70324H7.42549ZM8.12896 0.00511779C8.27487 0.00511779 8.40253 0.0588545 8.51196 0.166328C8.62139 0.273801 8.6761 0.399187 8.6761 0.542485V1.66328C8.6761 1.81681 8.62139 1.94732 8.51196 2.05479C8.40253 2.16226 8.27487 2.216 8.12896 2.216H0.547149C0.401244 2.216 0.273578 2.16226 0.16415 2.05479C0.0547216 1.94732 7.62939e-06 1.81681 7.62939e-06 1.66328V0.542485C7.62939e-06 0.399187 0.0547216 0.273801 0.16415 0.166328C0.273578 0.0588545 0.401244 0.00511779 0.547149 0.00511779H8.12896ZM12.9766 2.20065C12.8411 2.18018 12.7291 2.11876 12.6405 2.01641C12.5519 1.91405 12.5077 1.79634 12.5077 1.66328V0.542485C12.5077 0.36848 12.5702 0.2303 12.6952 0.127944C12.8203 0.0255888 12.9662 -0.0153533 13.133 0.00511779C14.0292 0.148416 14.8265 0.4606 15.5247 0.941672C16.4314 1.58651 17.0724 2.44118 17.4476 3.50568C17.5101 3.67969 17.4892 3.84346 17.385 3.99699C17.2808 4.15052 17.1297 4.22729 16.9317 4.22729H15.6811C15.5664 4.22729 15.4622 4.19914 15.3684 4.14285C15.2746 4.08655 15.2069 4.00722 15.1652 3.90487C14.9359 3.37262 14.5868 2.94784 14.1178 2.63054C13.7531 2.40536 13.3727 2.26206 12.9766 2.20065ZM16.9317 7.29796C17.1297 7.29796 17.2808 7.37473 17.385 7.52826C17.4892 7.68179 17.5101 7.84556 17.4476 8.01957C17.0724 9.08406 16.4314 9.93873 15.5247 10.5836C14.8265 11.0646 14.0292 11.3768 13.133 11.5201H13.0548C12.9089 11.5201 12.789 11.4741 12.6952 11.3819C12.5702 11.2898 12.5077 11.1568 12.5077 10.9828V9.86197C12.5077 9.72891 12.5493 9.6112 12.6327 9.50884C12.7161 9.40649 12.8255 9.34507 12.961 9.3246C13.3987 9.26319 13.7843 9.11989 14.1178 8.89471C14.5868 8.5774 14.9359 8.15263 15.1652 7.62038C15.2069 7.51802 15.2746 7.4387 15.3684 7.3824C15.4622 7.32611 15.5664 7.29796 15.6811 7.29796H16.9317ZM11.3352 0.189358C11.4707 0.291714 11.5384 0.429894 11.5384 0.603898V1.80146C11.5384 1.91405 11.4993 2.01897 11.4212 2.1162C11.343 2.21344 11.2466 2.28253 11.132 2.32347C10.9861 2.35418 10.8714 2.39 10.7881 2.43095C10.3712 2.61519 10.0169 2.86596 9.72505 3.18326C9.13101 3.83834 8.83399 4.69557 8.83399 5.75495C8.83399 6.81433 9.13101 7.67668 9.72505 8.34199C10.0898 8.75141 10.5588 9.038 11.132 9.20177C11.2466 9.23248 11.343 9.29645 11.4212 9.39369C11.4993 9.49093 11.5384 9.59584 11.5384 9.70843V10.9213C11.5384 11.0954 11.4707 11.2335 11.3352 11.3359C11.2414 11.4178 11.1216 11.4587 10.9757 11.4587H10.8662C9.7511 11.2233 8.80794 10.691 8.03673 9.86197C7.04666 8.76676 6.55163 7.40031 6.55163 5.76262C6.55163 4.12493 7.04666 2.75848 8.03673 1.66328C8.80794 0.823963 9.7511 0.296831 10.8662 0.0818846C11.033 0.0409423 11.1893 0.0767668 11.3352 0.189358Z"
      fill="#FFFFFF"
    />
  </g>
</svg>
